<svg width="19" height="17" viewBox="0 0 19 17" fill="none" xmlns="http://www.w3.org/2000/svg">
<path d="M1.80775 17C1.30258 17 0.875 16.825 0.525 16.475C0.175 16.125 0 15.6974 0 15.1923V1.80775C0 1.30258 0.175 0.875 0.525 0.525C0.875 0.175 1.30258 0 1.80775 0H17.1923C17.6974 0 18.125 0.175 18.475 0.525C18.825 0.875 19 1.30258 19 1.80775V15.1923C19 15.6974 18.825 16.125 18.475 16.475C18.125 16.825 17.6974 17 17.1923 17H1.80775ZM4.63475 13.1152H14.3652C14.5778 13.1152 14.7559 13.0434 14.8997 12.8997C15.0434 12.7559 15.1152 12.5777 15.1152 12.365C15.1152 12.1525 15.0434 11.9744 14.8997 11.8308C14.7559 11.6873 14.5778 11.6155 14.3652 11.6155H4.63475C4.42225 11.6155 4.24408 11.6873 4.10025 11.831C3.95658 11.9748 3.88475 12.1531 3.88475 12.3658C3.88475 12.5782 3.95658 12.7563 4.10025 12.9C4.24408 13.0435 4.42225 13.1152 4.63475 13.1152ZM4.63475 9.25H6.827C7.0395 9.25 7.21758 9.17808 7.36125 9.03425C7.50508 8.89058 7.577 8.7125 7.577 8.5V4.63475C7.577 4.42225 7.50508 4.24408 7.36125 4.10025C7.21758 3.95658 7.0395 3.88475 6.827 3.88475H4.63475C4.42225 3.88475 4.24408 3.95658 4.10025 4.10025C3.95658 4.24408 3.88475 4.42225 3.88475 4.63475V8.5C3.88475 8.7125 3.95658 8.89058 4.10025 9.03425C4.24408 9.17808 4.42225 9.25 4.63475 9.25ZM10.5193 9.25H14.3652C14.5778 9.25 14.7559 9.17808 14.8997 9.03425C15.0434 8.89042 15.1152 8.71225 15.1152 8.49975C15.1152 8.28708 15.0434 8.109 14.8997 7.9655C14.7559 7.82183 14.5778 7.75 14.3652 7.75H10.5193C10.3068 7.75 10.1286 7.82192 9.98475 7.96575C9.84108 8.10958 9.76925 8.28775 9.76925 8.50025C9.76925 8.71292 9.84108 8.891 9.98475 9.0345C10.1286 9.17817 10.3068 9.25 10.5193 9.25ZM10.5193 5.3845H14.3652C14.5778 5.3845 14.7559 5.31267 14.8997 5.169C15.0434 5.02517 15.1152 4.84692 15.1152 4.63425C15.1152 4.42175 15.0434 4.24367 14.8997 4.1C14.7559 3.9565 14.5778 3.88475 14.3652 3.88475H10.5193C10.3068 3.88475 10.1286 3.95658 9.98475 4.10025C9.84108 4.24408 9.76925 4.42233 9.76925 4.635C9.76925 4.8475 9.84108 5.02558 9.98475 5.16925C10.1286 5.31275 10.3068 5.3845 10.5193 5.3845Z" fill="#0A529D"/>
</svg>
