<svg width="19" height="17" viewBox="0 0 19 17" fill="none" xmlns="http://www.w3.org/2000/svg">
<path d="M8.077 14.173H1.80775C1.30258 14.173 0.875 13.998 0.525 13.648C0.175 13.298 0 12.8704 0 12.3652V1.80775C0 1.30258 0.175 0.875 0.525 0.525C0.875 0.175 1.30258 0 1.80775 0H17.1923C17.6974 0 18.125 0.175 18.475 0.525C18.825 0.875 19 1.30258 19 1.80775V12.3652C19 12.8704 18.825 13.298 18.475 13.648C18.125 13.998 17.6974 14.173 17.1923 14.173H10.923L12.7345 15.9845C12.7678 16.0178 12.8114 16.1217 12.8652 16.296V16.5578C12.8652 16.6782 12.8217 16.7821 12.7345 16.8693C12.6473 16.9564 12.5435 17 12.423 17H6.44625C6.35908 17 6.28533 16.9698 6.225 16.9095C6.16483 16.8493 6.13475 16.7757 6.13475 16.6885V16.246C6.13475 16.2127 6.16483 16.139 6.225 16.025L8.077 14.173Z" fill="#0A529D"/>
</svg>
