<svg width="19" height="14" viewBox="0 0 19 14" fill="none" xmlns="http://www.w3.org/2000/svg">
<path d="M0.998081 4.87879V1.53385C0.998081 1.10522 1.15469 0.742424 1.46792 0.445455C1.78115 0.148485 2.16381 0 2.61591 0H16.3841C16.8362 0 17.2188 0.148485 17.5321 0.445455C17.8453 0.742424 18.0019 1.10522 18.0019 1.53385V4.87879H16.6595V1.53385C16.6595 1.46852 16.6308 1.4087 16.5734 1.35439C16.5161 1.29995 16.453 1.27273 16.3841 1.27273H2.61591C2.547 1.27273 2.4839 1.29995 2.42663 1.35439C2.3692 1.4087 2.34049 1.46852 2.34049 1.53385V4.87879H0.998081ZM2.61591 11.8788C2.16381 11.8788 1.78115 11.7303 1.46792 11.4333C1.15469 11.1364 0.998081 10.7736 0.998081 10.3449V6.15152H2.34049V10.3449C2.34049 10.4103 2.3692 10.4702 2.42663 10.5246C2.4839 10.5789 2.547 10.6061 2.61591 10.6061H16.3841C16.453 10.6061 16.5161 10.5789 16.5734 10.5246C16.6308 10.4702 16.6595 10.4103 16.6595 10.3449V6.15152H18.0019V10.3449C18.0019 10.7736 17.8453 11.1364 17.5321 11.4333C17.2188 11.7303 16.8362 11.8788 16.3841 11.8788H2.61591ZM0 14V12.7273H19V14H0ZM0.998081 6.15152V4.87879H5.92024C6.04419 4.87879 6.1621 4.91032 6.27397 4.97339C6.38584 5.03661 6.47041 5.12259 6.52768 5.23133L7.77724 7.58758L10.71 2.65979C10.7672 2.55967 10.8473 2.48295 10.95 2.42964C11.0526 2.37632 11.1659 2.34967 11.2899 2.34967C11.4138 2.34967 11.5317 2.37632 11.6436 2.42964C11.7555 2.48295 11.84 2.56836 11.8973 2.68588L13.054 4.87879H18.0019V6.15152H12.7184C12.5715 6.15152 12.4306 6.11538 12.2958 6.04312C12.161 5.97072 12.0592 5.86487 11.9904 5.72558L11.2451 4.30776L8.30392 9.21921C8.24649 9.32796 8.16184 9.40949 8.04998 9.46379C7.93811 9.51823 7.8202 9.54545 7.69625 9.54545C7.57245 9.54545 7.45693 9.51392 7.34969 9.45085C7.24229 9.38778 7.15996 9.30187 7.10268 9.19312L5.4985 6.15152H0.998081Z" fill="white"/>
</svg>
